<svg width="141" height="96" viewBox="0 0 141 96" fill="none" xmlns="http://www.w3.org/2000/svg">
<g clip-path="url(#clip0)">
<path d="M82.0119 92.2605H13.8262C12.7845 92.2605 11.9399 93.0976 11.9399 94.1302C11.9399 95.1629 12.7845 96 13.8262 96H82.0119C83.0536 96 83.8981 95.1629 83.8981 94.1302C83.8981 93.0976 83.0536 92.2605 82.0119 92.2605Z" fill="#72767D"/>
<path d="M129.035 81.4041H28.393C26.1146 81.4041 24.2676 83.2349 24.2676 85.4934C24.2676 87.7518 26.1146 89.5827 28.393 89.5827H129.035C131.313 89.5827 133.16 87.7518 133.16 85.4934C133.16 83.2349 131.313 81.4041 129.035 81.4041Z" fill="#72767D"/>
<path fill-rule="evenodd" clip-rule="evenodd" d="M44.9315 18.1824L47.341 20.8965L39.8081 38.255L44.9315 18.1824Z" fill="#C4CDDB"/>
<path fill-rule="evenodd" clip-rule="evenodd" d="M126.029 68.0987L103.734 70.1132C103.609 70.1244 103.483 70.0856 103.386 70.0052C103.289 69.9249 103.229 69.8097 103.217 69.685C103.206 69.5602 103.245 69.4361 103.326 69.3399C103.407 69.2438 103.523 69.1835 103.649 69.1723L126.005 67.1578C126.128 67.1455 126.242 67.0856 126.322 66.9908C126.402 66.8961 126.441 66.7741 126.431 66.6511L126.114 63.1047C126.103 62.9799 126.142 62.8558 126.223 62.7596C126.304 62.6635 126.42 62.6032 126.546 62.592C126.672 62.5808 126.797 62.6196 126.894 62.6999C126.991 62.7802 127.052 62.8954 127.063 63.0202L127.392 66.5667C127.407 66.7566 127.383 66.9475 127.322 67.1282C127.261 67.3088 127.164 67.4755 127.037 67.6184C126.91 67.7612 126.755 67.8774 126.582 67.9599C126.409 68.0424 126.221 68.0896 126.029 68.0987Z" fill="#E3E8F5"/>
<path fill-rule="evenodd" clip-rule="evenodd" d="M128.39 65.0346L125.055 65.3361C124.993 65.3428 124.93 65.3372 124.87 65.3195C124.809 65.3018 124.753 65.2725 124.705 65.2333C124.656 65.194 124.616 65.1456 124.586 65.0908C124.556 65.0359 124.538 64.9759 124.532 64.9139L123.607 54.7811C123.6 54.7184 123.607 54.6549 123.625 54.5945C123.644 54.5341 123.674 54.4781 123.715 54.4297C123.756 54.3813 123.806 54.3415 123.863 54.3128C123.92 54.2841 123.982 54.2669 124.045 54.2624L127.367 53.9609C127.431 53.9542 127.495 53.9603 127.556 53.9787C127.617 53.9971 127.673 54.0275 127.722 54.068C127.771 54.1085 127.811 54.1583 127.84 54.2145C127.869 54.2707 127.886 54.3322 127.891 54.3951L128.816 64.5279C128.822 64.5891 128.817 64.651 128.799 64.7099C128.781 64.7689 128.751 64.8236 128.711 64.8709C128.671 64.9181 128.622 64.957 128.567 64.9851C128.512 65.0133 128.452 65.0301 128.39 65.0346Z" fill="black"/>
<path fill-rule="evenodd" clip-rule="evenodd" d="M90.6888 35.1549L49.9575 5.35962L53.2068 22.3924C53.8377 25.7214 55.7158 28.6906 58.464 30.7037L90.8835 54.4193L93.147 51.3795L90.6888 35.1549Z" fill="#D9E1EC"/>
<path fill-rule="evenodd" clip-rule="evenodd" d="M101.629 36.6868L47.5117 -2.90358C47.4355 -2.96105 47.3437 -2.99437 47.2481 -2.99916C47.1525 -3.00394 47.0577 -2.97998 46.9761 -2.93041C46.8945 -2.88084 46.8299 -2.80798 46.7909 -2.72139C46.7518 -2.6348 46.74 -2.53852 46.7572 -2.44519L47.682 2.87453C47.7903 3.47673 48.1252 4.01569 48.6191 4.38239L49.9577 5.35948L90.689 35.1548L93.1229 51.3793L90.8837 54.4192L89.1313 56.7111L102.761 66.6871L106.741 61.3553L103.455 39.799C103.282 38.5644 102.626 37.4468 101.629 36.6868Z" fill="#EBEEF5"/>
<path fill-rule="evenodd" clip-rule="evenodd" d="M93.147 51.3795L90.7131 35.1549L49.9575 5.35962L50.6147 8.77341L88.4983 36.518L90.7862 51.5725L89.4353 53.3819L90.8835 54.4314L93.147 51.3795Z" fill="#C4CDDB"/>
<path fill-rule="evenodd" clip-rule="evenodd" d="M83.9837 29.9437C75.9229 29.5937 68.0521 32.4319 62.1024 37.8341C56.1527 43.2362 52.6115 50.7598 52.2578 58.7499L113.105 61.3916C113.28 57.4305 112.665 53.474 111.295 49.7488C109.926 46.0235 107.828 42.6025 105.124 39.6815C102.419 36.7605 99.1593 34.397 95.5318 32.726C91.9044 31.0551 87.9801 30.1096 83.9837 29.9437Z" fill="#505E7E"/>
<path fill-rule="evenodd" clip-rule="evenodd" d="M106.667 41.6326C106.436 41.331 106.193 41.0415 105.949 40.752C105.418 40.1526 104.73 39.7111 103.961 39.4768C103.191 39.2425 102.372 39.2246 101.593 39.4251L56.3831 50.0766C55.6009 50.2413 54.8805 50.6185 54.3023 51.1661C53.7242 51.7136 53.3111 52.4098 53.1095 53.1768C52.0345 57.6265 51.9794 62.2584 52.9481 66.732C53.9169 71.2056 55.8849 75.4071 58.7075 79.0275C59.036 79.4497 59.3646 79.8478 59.7175 80.2338C60.1756 80.8125 60.5082 81.4786 60.6946 82.1906C60.881 82.9025 60.9171 83.645 60.8006 84.3714C60.8006 84.8901 60.399 85.2882 60.5937 85.8551C60.8736 86.6151 61.3361 86.6754 62.0297 86.8684C63.2467 87.1941 99.9742 86.9528 101.374 86.9287C102.773 86.9046 104.526 87.0493 105.791 86.1446C105.869 86.0957 105.934 86.0301 105.982 85.9527C106.03 85.8753 106.06 85.788 106.069 85.6975C106.079 85.607 106.067 85.5156 106.036 85.4301C106.005 85.3446 105.954 85.2672 105.889 85.2037C105.313 84.7841 104.904 84.1777 104.733 83.49C104.562 82.8024 104.639 82.077 104.951 81.4401C105.767 79.5583 107.726 77.7006 108.602 76.3013C111.84 71.0016 113.387 64.8564 113.041 58.6705C112.696 52.4845 110.475 46.546 106.667 41.6326Z" fill="#505E7E"/>
<path fill-rule="evenodd" clip-rule="evenodd" d="M99.6941 50.0767C101.682 53.416 102.626 57.2645 102.407 61.1355C102.187 65.0065 100.815 68.7262 98.4633 71.8242C96.1114 74.9221 92.8855 77.2591 89.1936 78.5397C85.5017 79.8202 81.5097 79.9868 77.7223 79.0183C73.9349 78.0498 70.5223 75.9897 67.9161 73.0986C65.3099 70.2076 63.6272 66.6153 63.0807 62.7762C62.5342 58.9371 63.1486 55.0236 64.846 51.5306C66.5435 48.0376 69.2478 45.122 72.617 43.1526C77.1341 40.5122 82.5243 39.7583 87.602 41.0568C92.6798 42.3553 97.0294 45.5998 99.6941 50.0767Z" fill="#7787AF"/>
<path fill-rule="evenodd" clip-rule="evenodd" d="M100.717 34.5156C101.203 39.1116 90.0076 51.4036 82.5842 58.3277C75.2825 59.0394 56.8579 59.9321 52.1605 56.1685C51.9553 56.0184 51.7828 55.8289 51.6532 55.6113C51.5236 55.3937 51.4395 55.1524 51.406 54.9019C51.3829 54.7176 51.3829 54.5312 51.406 54.347C52.1834 49.8898 53.9291 45.6534 56.5221 41.9312C59.1151 38.2091 62.4935 35.0902 66.4231 32.7906C76.4386 26.9401 89.0218 27.2055 100.084 33.5144C100.267 33.6135 100.422 33.7576 100.532 33.933C100.643 34.1083 100.707 34.3089 100.717 34.5156Z" fill="#FF8283"/>
<path fill-rule="evenodd" clip-rule="evenodd" d="M66.0819 32.8268C61.6368 35.4109 57.9268 39.0718 55.2997 43.4662C53.7177 46.1201 55.9812 49.2805 58.5125 51.0538C59.6548 51.8568 60.6369 52.863 61.4088 54.0212C62.7962 56.1081 64.792 58.388 67.2258 58.4121C72.0936 58.4724 77.1683 58.1829 80.6123 57.8814C81.6205 57.7921 82.5686 57.3669 83.3017 56.6751C90.5304 49.7269 100.339 38.5808 99.9131 34.3467C99.8978 34.143 99.8306 33.9465 99.7178 33.7756C99.605 33.6047 99.4503 33.465 99.2681 33.3696C88.3643 27.2417 75.927 27.0487 66.0819 32.8268Z" fill="#EB7374"/>
<path fill-rule="evenodd" clip-rule="evenodd" d="M83.2535 59.727C83.2535 59.727 52.5255 45.1309 55.1541 41.2708C57.875 37.2774 61.4635 33.9387 65.6564 31.4999C76.9375 24.9015 90.2144 26.144 100.838 32.2116C108.383 36.506 83.2535 59.727 83.2535 59.727Z" fill="#FFB0B1"/>
<path fill-rule="evenodd" clip-rule="evenodd" d="M60.6546 40.0643C63.77 41.2706 62.2123 38.5806 62.407 37.3381C62.7355 35.203 65.0964 35.6493 66.6054 35.0824C68.869 34.2259 67.6155 32.6698 68.6499 31.0172C68.8933 30.6312 68.4917 30.1245 68.0901 30.3175C67.2383 30.7156 66.4107 31.1619 65.5832 31.6444C63.7989 32.6888 62.1199 33.9007 60.5694 35.2633C59.0117 36.6023 58.7074 39.2923 60.6546 40.0643ZM92.8672 35.2392C92.899 35.8641 92.7961 36.4886 92.5653 37.0711C92.3344 37.6535 91.981 38.1804 91.5286 38.6168C88.4375 41.1621 84.2269 36.8435 81.0385 40.5348C78.4464 43.5626 79.9432 48.3153 76.7791 51.3069C75.5622 52.5132 74.9902 55.541 76.5357 56.3251C78.5437 57.3263 80.284 58.1828 81.5131 58.7377C82.0644 59.0048 82.6858 59.0961 83.2916 58.9989C83.8974 58.9017 84.458 58.6208 84.8962 58.1948C90.1899 53.0802 107.288 35.8061 100.838 32.2114C98.8437 31.0929 96.7549 30.1484 94.5953 29.3887C92.9159 28.7976 90.8227 29.5576 91.4312 31.2343C91.8815 32.4889 92.782 33.8037 92.8672 35.203V35.2392Z" fill="#FF8788"/>
<path fill-rule="evenodd" clip-rule="evenodd" d="M83.8376 33.0439V33.1525C83.9895 33.154 84.1359 33.2097 84.2498 33.3094C84.3638 33.4091 84.4377 33.5461 84.4582 33.6953C84.4768 33.7706 84.4768 33.8492 84.4582 33.9245C84.579 33.9217 84.6978 33.9554 84.7989 34.021C85.1032 34.1899 85.2614 34.5639 85.59 34.6845C86.1254 34.9016 86.6609 34.8654 86.8799 34.1417C87.01 33.6347 86.9336 33.0974 86.6671 32.646C86.4007 32.1945 85.9656 31.8651 85.4561 31.7291C84.5312 31.512 83.6307 31.8859 83.8376 33.0439Z" fill="#FF8788"/>
<path fill-rule="evenodd" clip-rule="evenodd" d="M97.0656 51.6448C98.7477 54.4705 99.5466 57.7274 99.3612 61.0033C99.1757 64.2792 98.0143 67.427 96.0237 70.0485C94.0332 72.67 91.303 74.6474 88.1785 75.7306C85.054 76.8138 81.6756 76.954 78.4706 76.1337C75.2657 75.3133 72.3782 73.5691 70.1735 71.1218C67.9687 68.6745 66.5458 65.634 66.0846 62.3849C65.6234 59.1358 66.1448 55.8242 67.5827 52.8688C69.0206 49.9135 71.3104 47.4473 74.1626 45.7822C77.9845 43.551 82.5437 42.9151 86.8383 44.0144C91.1329 45.1137 94.8114 47.8582 97.0656 51.6448Z" fill="#EAEEF6"/>
<path fill-rule="evenodd" clip-rule="evenodd" d="M94.7777 52.9838C96.192 55.359 96.864 58.0966 96.7087 60.8504C96.5533 63.6042 95.5777 66.2504 93.905 68.4545C92.2324 70.6586 89.938 72.3216 87.3119 73.2331C84.6858 74.1446 81.846 74.2637 79.1516 73.5753C76.4572 72.8869 74.0292 71.422 72.1748 69.3658C70.3203 67.3097 69.1226 64.7545 68.7332 62.0236C68.3438 59.2927 68.7801 56.5086 69.9869 54.0235C71.1938 51.5384 73.117 49.4638 75.5134 48.0622C78.7265 46.1828 82.5611 45.6456 86.1738 46.5685C89.7865 47.4915 92.8814 49.7991 94.7777 52.9838Z" fill="#D9E1EC"/>
<path fill-rule="evenodd" clip-rule="evenodd" d="M73.761 54.9017L80.9653 49.7388C81.181 49.5841 81.4339 49.4881 81.6987 49.4606C81.9635 49.4331 82.231 49.475 82.4744 49.582L90.5914 53.2009C90.8346 53.3051 91.0452 53.4719 91.2014 53.684C91.3577 53.8961 91.4538 54.1458 91.4798 54.4072L92.3925 63.1769C92.4198 63.4399 92.3768 63.7054 92.2679 63.9468C92.1589 64.1882 91.9879 64.3969 91.7719 64.552L84.5675 69.7391C84.3495 69.8938 84.0946 69.9896 83.8279 70.0171C83.5612 70.0446 83.2918 70.0028 83.0463 69.8959L74.9293 66.277C74.6897 66.1678 74.4822 65.9996 74.3267 65.7885C74.1712 65.5773 74.0728 65.3302 74.0409 65.0707L73.1282 56.301C73.0978 56.033 73.1404 55.7618 73.2517 55.5157C73.363 55.2696 73.5389 55.0576 73.761 54.9017Z" fill="#C4CDDB"/>
<path fill-rule="evenodd" clip-rule="evenodd" d="M86.8555 57.6158C87.343 58.4384 87.5736 59.3858 87.518 60.3382C87.4625 61.2907 87.1233 62.2054 86.5435 62.9668C85.9636 63.7283 85.169 64.3022 84.2602 64.6162C83.3513 64.9301 82.369 64.9699 81.4373 64.7306C80.5056 64.4913 79.6664 63.9836 79.0257 63.2717C78.3851 62.5597 77.9717 61.6755 77.8378 60.7308C77.704 59.786 77.8557 58.8231 78.2738 57.9638C78.6918 57.1045 79.3575 56.3873 80.1867 55.9029C80.7379 55.5809 81.3478 55.3697 81.9814 55.2815C82.615 55.1933 83.26 55.2298 83.8794 55.3889C84.4988 55.548 85.0804 55.8266 85.5911 56.2087C86.1018 56.5908 86.5315 57.069 86.8555 57.6158Z" fill="#B6C1CC"/>
<path d="M108.603 79.7634H108.14L85.8334 77.8937C85.1131 77.8506 84.4086 77.6656 83.7612 77.3494C83.1139 77.0333 82.5366 76.5924 82.0633 76.0524C81.5899 75.5125 81.2299 74.8844 81.0043 74.2049C80.7788 73.5254 80.6922 72.8081 80.7496 72.095C80.8071 71.382 81.0074 70.6874 81.3389 70.052C81.6704 69.4166 82.1264 68.8531 82.6803 68.3945C83.2341 67.9359 83.8746 67.5913 84.5644 67.3811C85.2542 67.1708 85.9793 67.0989 86.6974 67.1697L109.101 69.0154C110.528 69.0965 111.865 69.7319 112.821 70.7838C113.778 71.8356 114.278 73.2191 114.212 74.6339C114.147 76.0487 113.521 77.3808 112.471 78.3411C111.42 79.3014 110.03 79.8125 108.603 79.7634Z" fill="#2F3848"/>
<path fill-rule="evenodd" clip-rule="evenodd" d="M107.386 69.7392L84.9937 71.7898C84.9314 71.7954 84.8686 71.7887 84.8089 71.7702C84.7491 71.7517 84.6937 71.7217 84.6456 71.6819C84.5976 71.6421 84.558 71.5934 84.5289 71.5384C84.4999 71.4835 84.4821 71.4234 84.4765 71.3616C84.4709 71.2998 84.4777 71.2376 84.4963 71.1784C84.515 71.1192 84.5453 71.0642 84.5854 71.0166C84.6255 70.969 84.6747 70.9297 84.7302 70.9009C84.7856 70.8721 84.8462 70.8545 84.9085 70.8489L107.252 68.8465C107.379 68.8343 107.496 68.773 107.578 68.676C107.66 68.579 107.7 68.4539 107.69 68.3278L107.386 64.7331C107.38 64.6713 107.387 64.609 107.405 64.5498C107.424 64.4906 107.454 64.4356 107.494 64.388C107.535 64.3404 107.584 64.3011 107.639 64.2724C107.695 64.2436 107.755 64.2259 107.818 64.2204C107.88 64.2149 107.943 64.2215 108.002 64.2401C108.062 64.2586 108.118 64.2886 108.166 64.3283C108.214 64.3681 108.253 64.4169 108.282 64.4718C108.311 64.5268 108.329 64.5869 108.335 64.6486L108.603 68.171C108.644 68.5378 108.541 68.9063 108.314 69.1989C108.087 69.4915 107.754 69.6852 107.386 69.7392Z" fill="#E3E8F5"/>
<path fill-rule="evenodd" clip-rule="evenodd" d="M109.698 66.6752L106.375 66.9647C106.312 66.9713 106.248 66.9653 106.187 66.9468C106.126 66.9284 106.07 66.8981 106.021 66.8576C105.972 66.817 105.932 66.7672 105.903 66.711C105.874 66.6548 105.857 66.5934 105.852 66.5304L104.951 56.4097C104.945 56.3478 104.95 56.2853 104.968 56.2256C104.986 56.166 105.016 56.1105 105.055 56.0622C105.095 56.014 105.144 55.974 105.199 55.9446C105.254 55.9152 105.315 55.897 105.377 55.891L108.712 55.5894C108.774 55.5844 108.837 55.5918 108.896 55.611C108.956 55.6301 109.011 55.6608 109.059 55.7011C109.106 55.7415 109.145 55.7908 109.173 55.8461C109.201 55.9015 109.218 55.9618 109.223 56.0236L110.16 66.1565C110.167 66.2212 110.16 66.2866 110.14 66.3485C110.12 66.4105 110.087 66.4676 110.044 66.5163C110 66.5651 109.947 66.6044 109.887 66.6317C109.828 66.659 109.763 66.6738 109.698 66.6752Z" fill="black"/>
<path fill-rule="evenodd" clip-rule="evenodd" d="M92.4898 72.2963L74.3451 78.171L72.0938 71.3434L90.2263 65.4688L92.4898 72.2963Z" fill="#B6C1CC"/>
<path fill-rule="evenodd" clip-rule="evenodd" d="M77.5702 79.112L55.0567 89.088C54.8463 89.1838 54.6156 89.2272 54.3844 89.2146C54.1533 89.202 53.9287 89.1337 53.7302 89.0157C52.6836 88.3763 50.7122 86.6755 49.337 82.5258C47.9619 78.3762 48.5582 75.843 49.0206 74.7091C49.1112 74.4993 49.2514 74.3141 49.4293 74.1693C49.6072 74.0244 49.8176 73.9241 50.0429 73.8768L74.1871 68.7018C74.4187 68.6547 74.6597 68.6939 74.864 68.8119C75.0683 68.9298 75.2216 69.1182 75.2945 69.3411L78.13 77.954C78.2021 78.1814 78.1843 78.4274 78.0804 78.6424C77.9765 78.8573 77.7942 79.0252 77.5702 79.112Z" fill="#C4CDDB"/>
<path d="M48.6191 79.7875C48.7708 80.7171 48.9987 81.6329 49.3006 82.5258C49.2966 82.5538 49.2966 82.5822 49.3006 82.6102C50.0186 79.2568 52.4403 76.9286 56.797 77.3146C59.4378 77.5438 60.6913 77.3146 61.4944 74.4678C61.5633 74.0468 61.7188 73.6443 61.9511 73.2853C62.1835 72.9263 62.4878 72.6185 62.8453 72.3809C63.7336 71.8019 63.831 71.1746 63.2834 71.0178L49.9943 73.8767C49.769 73.9241 49.5586 74.0244 49.3807 74.1693C49.2028 74.3141 49.0626 74.4993 48.972 74.7091C48.4251 76.3455 48.3037 78.0922 48.6191 79.7875Z" fill="#ADB7C2" fill-opacity="0.6"/>
<path d="M63.1978 75.4087C63.1313 75.6659 63.1313 75.9356 63.1978 76.1928C63.3803 76.6632 63.7576 77.1216 64.2565 77.0854C64.7555 77.0492 65.1571 76.0963 64.9989 75.5896C64.9152 75.3586 64.7685 75.1551 64.5752 75.0018C64.3818 74.8485 64.1494 74.7513 63.9036 74.7211C63.4777 74.6608 63.283 74.9986 63.1978 75.4087Z" fill="#ADB7C2" fill-opacity="0.6"/>
<path fill-rule="evenodd" clip-rule="evenodd" d="M70.524 73.1048C70.5952 73.3181 70.6007 73.5475 70.5401 73.764C70.4794 73.9805 70.3553 74.1742 70.1833 74.3206C70.0114 74.467 69.7995 74.5595 69.5745 74.5864C69.3494 74.6132 69.1214 74.5731 68.9194 74.4713C68.7174 74.3695 68.5504 74.2105 68.4397 74.0144C68.329 73.8184 68.2795 73.5941 68.2976 73.3702C68.3157 73.1462 68.4004 72.9326 68.5412 72.7565C68.6819 72.5804 68.8722 72.4497 69.088 72.381C69.3753 72.2895 69.6874 72.3143 69.9564 72.4498C70.2253 72.5854 70.4294 72.8208 70.524 73.1048Z" fill="#B6C1CC"/>
<path fill-rule="evenodd" clip-rule="evenodd" d="M92.843 75.6499L86.7583 76.2048L84.8477 55.9271L93.3663 55.155L94.997 73.0805C95.0418 73.7015 94.8427 74.3157 94.4412 74.7945C94.0398 75.2734 93.4671 75.5798 92.843 75.6499Z" fill="black"/>
<path fill-rule="evenodd" clip-rule="evenodd" d="M43.0452 25.5648L39.8081 38.2549L34.9403 37.5311C31.5841 37.0005 28.5473 35.2503 26.4217 32.6216L17.7083 21.765L15.4448 19.075L43.6294 23.2608L43.0452 25.5648Z" fill="#D9E1EC"/>
<path fill-rule="evenodd" clip-rule="evenodd" d="M72.3615 48.1588L70.8403 51.6208L69.1974 50.9212L39.8081 38.2551L46.1849 26.8195L47.3532 24.7327L66.2889 32.8872L72.3615 48.1588Z" fill="#D9E1EC"/>
<path fill-rule="evenodd" clip-rule="evenodd" d="M9.36027 12.899L44.9317 18.1825L43.6296 23.261L15.445 19.0752L13.79 18.8339C13.1836 18.7387 12.6358 18.4199 12.2566 17.9413L8.91 13.659C8.85533 13.5831 8.82401 13.4932 8.81982 13.4C8.81563 13.3069 8.83874 13.2145 8.88637 13.1342C8.934 13.0538 9.0041 12.9888 9.0882 12.947C9.1723 12.9053 9.2668 12.8886 9.36027 12.899Z" fill="#EBEEF5"/>
<path fill-rule="evenodd" clip-rule="evenodd" d="M87.9144 54.9019L85.2371 60.9333L69.6602 54.2263L70.8771 51.6328L72.3983 48.1587L66.3136 32.8992L47.3535 24.7447L49.9091 20.1729L77.3026 31.9824C78.4599 32.4902 79.3722 33.4247 79.8461 34.588L87.9144 54.9019Z" fill="#EBEEF5"/>
<path fill-rule="evenodd" clip-rule="evenodd" d="M15.4448 19.075L43.6294 23.2608L43.0452 25.5648L17.6232 21.7891L15.4448 19.075Z" fill="#C4CDDB"/>
<path fill-rule="evenodd" clip-rule="evenodd" d="M72.3616 48.1588L70.8404 51.6208L69.1976 50.9212L70.0859 48.8584L64.4636 34.6966L46.1851 26.8195L47.3533 24.7327L66.2891 32.8872L72.3616 48.1588Z" fill="#C4CDDB"/>
<path fill-rule="evenodd" clip-rule="evenodd" d="M15.0189 15.42C14.8334 15.3935 14.6442 15.4221 14.4751 15.5021C14.306 15.582 14.1645 15.7098 14.0686 15.8694C13.9726 16.0289 13.9264 16.213 13.9358 16.3985C13.9452 16.584 14.0097 16.7626 14.1213 16.9118C14.233 17.061 14.3866 17.1741 14.563 17.2368C14.7393 17.2996 14.9305 17.3093 15.1123 17.2645C15.2942 17.2198 15.4586 17.1227 15.5849 16.9856C15.7112 16.8484 15.7938 16.6772 15.8221 16.4936C15.8571 16.246 15.7925 15.9946 15.6422 15.7938C15.492 15.593 15.2681 15.4587 15.0189 15.42Z" fill="#D9E1EC"/>
<path fill-rule="evenodd" clip-rule="evenodd" d="M19.0348 16.0231C18.9107 16.0026 18.7837 16.0071 18.6613 16.0364C18.539 16.0656 18.4238 16.119 18.3228 16.1933C18.2217 16.2676 18.1367 16.3613 18.073 16.4688C18.0092 16.5764 17.968 16.6956 17.9517 16.8193C17.9146 17.0672 17.9784 17.3196 18.129 17.5209C18.2796 17.7223 18.5048 17.8561 18.7549 17.8929C19.0051 17.9296 19.2597 17.8664 19.4628 17.7171C19.6659 17.5678 19.8009 17.3447 19.838 17.0967C19.873 16.8491 19.8084 16.5978 19.6581 16.3969C19.5079 16.1961 19.284 16.0618 19.0348 16.0231Z" fill="#D9E1EC"/>
<path fill-rule="evenodd" clip-rule="evenodd" d="M77.1442 33.6953C76.9157 33.612 76.664 33.6166 76.4387 33.7081C76.2135 33.7997 76.031 33.9716 75.9273 34.1899C75.8372 34.4159 75.8388 34.6677 75.9318 34.8926C76.0248 35.1175 76.202 35.2979 76.4262 35.3962C76.5433 35.4618 76.673 35.5023 76.8069 35.5151C76.9408 35.5279 77.0759 35.5128 77.2035 35.4706C77.3311 35.4284 77.4483 35.3601 77.5476 35.2702C77.647 35.1803 77.7261 35.0707 77.78 34.9485C77.834 34.8264 77.8614 34.6944 77.8606 34.5611C77.8599 34.4277 77.8309 34.296 77.7755 34.1745C77.7202 34.053 77.6397 33.9443 77.5394 33.8556C77.439 33.7668 77.321 33.6999 77.1929 33.6591L77.1442 33.6953Z" fill="#D9E1EC"/>
<path fill-rule="evenodd" clip-rule="evenodd" d="M90.2385 59.8355L80.3933 60.716C80.1941 60.736 79.9928 60.7163 79.8012 60.6583C79.6097 60.6004 79.4317 60.5052 79.2776 60.3783C79.1236 60.2514 78.9966 60.0954 78.904 59.9194C78.8114 59.7433 78.755 59.5508 78.7383 59.3529L78.2637 54.0935C78.2333 53.7004 78.3608 53.3114 78.6183 53.0109C78.8758 52.7105 79.2426 52.523 79.6388 52.4892L89.484 51.5965C89.6829 51.5782 89.8836 51.599 90.0745 51.6576C90.2653 51.7163 90.4427 51.8116 90.5964 51.9382C90.7501 52.0648 90.8771 52.2201 90.9702 52.3954C91.0633 52.5707 91.1207 52.7624 91.139 52.9596L91.6258 58.219C91.6529 58.6146 91.523 59.005 91.2639 59.307C91.0047 59.609 90.6367 59.7986 90.2385 59.8355Z" fill="#FB5D60"/>
<path fill-rule="evenodd" clip-rule="evenodd" d="M94.0597 62.1394L86.3199 62.8391C85.3114 62.9296 84.3079 62.6196 83.5299 61.9773C82.7518 61.3349 82.2627 60.4127 82.1701 59.4132L81.6225 53.3818C81.5344 52.3828 81.8483 51.3899 82.4957 50.6194C83.1431 49.8488 84.0715 49.3632 85.0786 49.2683L92.7819 48.629C93.1592 48.5954 93.5346 48.7109 93.8263 48.9504C94.1181 49.1899 94.3026 49.534 94.3396 49.9077L95.3131 60.5954C95.3476 60.9637 95.236 61.3309 95.002 61.6192C94.7681 61.9074 94.4301 62.094 94.0597 62.1394Z" fill="#CFD8E8"/>
<path fill-rule="evenodd" clip-rule="evenodd" d="M42.0718 36.2768C41.0793 35.812 40.0041 35.5456 38.9077 35.4927C38.8187 35.4958 38.7313 35.5164 38.6504 35.5534C38.5696 35.5904 38.497 35.643 38.4369 35.7082C38.3769 35.7733 38.3305 35.8497 38.3006 35.9328C38.2707 36.016 38.2578 36.1042 38.2627 36.1923C38.2753 36.3704 38.3572 36.5367 38.4912 36.6561C38.6252 36.7754 38.8007 36.8384 38.9807 36.8317H39.0659L39.2363 36.8075H39.5892C39.8147 36.839 40.0382 36.8833 40.2585 36.9402L40.5871 37.0367H40.7697C40.7697 37.0367 40.9644 37.0367 40.7697 37.0367C41.0029 37.1083 41.2274 37.2054 41.439 37.3262C41.5999 37.4007 41.7833 37.4122 41.9525 37.3585C42.1217 37.3049 42.2642 37.19 42.3517 37.0367C42.3921 36.897 42.3867 36.7482 42.3364 36.6116C42.2861 36.4751 42.1935 36.3579 42.0718 36.2768Z" fill="#9BA9C9"/>
<path fill-rule="evenodd" clip-rule="evenodd" d="M43.6536 33.0559C42.7518 32.4492 41.8037 31.9128 40.8181 31.4516C40.7359 31.4184 40.6478 31.4017 40.559 31.4026C40.4703 31.4035 40.3825 31.4219 40.301 31.4567C40.2195 31.4915 40.1457 31.542 40.0841 31.6053C40.0224 31.6687 39.9741 31.7435 39.9419 31.8255C39.8771 31.9921 39.8803 32.1772 39.9507 32.3415C40.0211 32.5059 40.1532 32.6366 40.3192 32.7061L41.0128 33.0439L41.3171 33.2128L41.4631 33.2851H41.5483C41.9864 33.5344 42.4123 33.7998 42.8261 34.0813C42.9697 34.1901 43.151 34.2378 43.3302 34.2141C43.5093 34.1903 43.6716 34.097 43.7814 33.9546C43.8911 33.8122 43.9393 33.6325 43.9153 33.4549C43.8914 33.2773 43.7972 33.1165 43.6536 33.0077V33.0559Z" fill="#9BA9C9"/>
<path fill-rule="evenodd" clip-rule="evenodd" d="M43.6659 27.7241C43.6836 27.5486 43.636 27.3727 43.532 27.2295L43.4103 27.1089C43.3097 27.0372 43.1926 26.9915 43.0696 26.9762H42.0474C41.9648 26.9467 41.8744 26.9467 41.7918 26.9762C41.7051 26.9873 41.6242 27.0253 41.5606 27.0848C41.4879 27.1384 41.4294 27.2088 41.3902 27.2898C41.3371 27.364 41.3074 27.4522 41.305 27.5432C41.2869 27.715 41.3347 27.8872 41.4389 28.0257L41.5606 28.1584C41.6619 28.2268 41.7792 28.2683 41.9013 28.279H42.8871C42.9713 28.2969 43.0584 28.2969 43.1426 28.279C43.2259 28.2576 43.3044 28.2208 43.3738 28.1704C43.5138 28.0546 43.6049 27.8911 43.6294 27.712L43.6659 27.7241Z" fill="#9BA9C9"/>
<path fill-rule="evenodd" clip-rule="evenodd" d="M43.6295 23.261L45.7105 24.6603L44.8708 26.5903L43.0454 25.565L43.6295 23.261Z" fill="#A8B0BD"/>
<path fill-rule="evenodd" clip-rule="evenodd" d="M92.7817 48.6292L88.4372 49.0152C86.3319 49.2082 86.7822 50.7402 88.8875 50.5351C90.9928 50.3301 90.7859 50.704 90.7007 51.5725C90.6155 52.4411 90.9076 54.6003 92.3558 53.5991C93.804 52.5979 94.5828 52.5737 94.4611 51.1865L94.3394 49.8475C94.2878 49.4848 94.0971 49.1557 93.807 48.9288C93.5169 48.7019 93.1496 48.5945 92.7817 48.6292Z" fill="#C4CDDB"/>
<path fill-rule="evenodd" clip-rule="evenodd" d="M90.0073 53.4664C89.9823 53.3809 89.9313 53.3051 89.8613 53.2493C89.8034 53.19 89.7326 53.1446 89.6544 53.1166C89.5724 53.0726 89.4798 53.0518 89.3867 53.0563H89.2041C89.0944 53.0883 88.9942 53.1462 88.9121 53.2251L88.8025 53.3699C88.7395 53.4715 88.7058 53.5883 88.7052 53.7076C88.6868 53.7952 88.6868 53.8855 88.7052 53.973C88.7303 54.0585 88.7812 54.1343 88.8512 54.1902C88.9117 54.2521 88.987 54.2978 89.0703 54.3228C89.1536 54.348 89.2425 54.348 89.3258 54.3228H89.5084C89.6191 54.2933 89.72 54.235 89.8004 54.154L89.91 54.0092C89.973 53.9076 90.0067 53.7908 90.0073 53.6715C90.0182 53.6035 90.0182 53.5343 90.0073 53.4664Z" fill="#C4CDDB"/>
<path fill-rule="evenodd" clip-rule="evenodd" d="M92.344 57.6279C92.1805 57.6497 92.0305 57.7296 91.9219 57.8527C91.8133 57.9759 91.7534 58.1339 91.7534 58.2974C91.7534 58.461 91.8133 58.619 91.9219 58.7421C92.0305 58.8652 92.1805 58.9451 92.344 58.9669C92.5076 58.9451 92.6576 58.8652 92.7662 58.7421C92.8748 58.619 92.9347 58.461 92.9347 58.2974C92.9347 58.1339 92.8748 57.9759 92.7662 57.8527C92.6576 57.7296 92.5076 57.6497 92.344 57.6279Z" fill="#C4CDDB"/>
<path fill-rule="evenodd" clip-rule="evenodd" d="M32.543 16.3005L23.2212 14.9133C21.6878 14.6841 21.0793 16.1196 22.5397 16.6021C23.0392 16.7747 23.4949 17.053 23.8752 17.4175C24.2556 17.782 24.5514 18.224 24.7424 18.7131C24.8405 18.9103 24.983 19.0826 25.159 19.2165C25.3349 19.3505 25.5396 19.4426 25.7572 19.4858C25.9747 19.5289 26.1994 19.5219 26.4138 19.4653C26.6282 19.4087 26.8266 19.3041 26.9937 19.1594C28.2107 18.4236 29.1842 17.4585 30.5715 18.1702C31.9589 18.882 33.5774 18.4115 32.543 16.3005Z" fill="#D9E1EC"/>
<path fill-rule="evenodd" clip-rule="evenodd" d="M30.8634 26.3731C30.9463 26.2453 30.9963 26.0993 31.0091 25.9479C31.0218 25.7964 30.9969 25.6442 30.9364 25.5046C30.6687 24.9135 29.9994 24.9979 29.4396 25.0824C29.3874 25.0094 29.3204 24.948 29.2429 24.9023C29.1653 24.8566 29.0789 24.8275 28.9893 24.817C28.6807 24.7865 28.3692 24.8236 28.0766 24.9256C27.9819 24.9661 27.898 25.0278 27.8313 25.1059C27.7647 25.1839 27.7171 25.2762 27.6924 25.3754C27.6676 25.4747 27.6664 25.5783 27.6887 25.6781C27.711 25.7779 27.7563 25.8713 27.821 25.9509L28.3687 26.5299C28.241 26.6596 28.1528 26.8223 28.114 26.9993C28.0753 27.1764 28.0876 27.3607 28.1496 27.5311C28.3687 28.1705 29.111 28.2911 29.7073 28.2187C30.2374 28.178 30.7326 27.9412 31.0946 27.5553C31.1621 27.4641 31.2098 27.36 31.2348 27.2497C31.2597 27.1394 31.2614 27.0251 31.2397 26.9141C31.218 26.8031 31.1733 26.6977 31.1086 26.6046C31.0438 26.5115 30.9604 26.4327 30.8634 26.3731Z" fill="#CED6E0"/>
<path fill-rule="evenodd" clip-rule="evenodd" d="M46.7572 -2.44519L47.3048 0.67909C47.5725 2.24726 48.7895 2.94691 49.6657 2.18695C50.5419 1.42699 51.9657 1.82506 52.4768 3.98432C52.9879 6.14357 54.4848 6.22801 55.3366 5.34742C56.1885 4.46683 58.0261 5.34742 59.7177 6.95179C61.4092 8.55615 62.1516 7.79619 62.1516 7.79619L47.5117 -2.90358C47.4355 -2.96105 47.3437 -2.99437 47.2481 -2.99916C47.1525 -3.00394 47.0577 -2.97998 46.9761 -2.93041C46.8945 -2.88084 46.8299 -2.80798 46.7909 -2.72139C46.7518 -2.6348 46.74 -2.53852 46.7572 -2.44519Z" fill="#CED6E0"/>
<path fill-rule="evenodd" clip-rule="evenodd" d="M114.407 87.1218H109.211C108.951 87.0941 108.711 86.9722 108.537 86.7796C108.362 86.587 108.266 86.3372 108.266 86.0783C108.266 85.8195 108.362 85.5697 108.537 85.3771C108.711 85.1845 108.951 85.0626 109.211 85.0349H114.407C114.667 85.0626 114.907 85.1845 115.082 85.3771C115.256 85.5697 115.353 85.8195 115.353 86.0783C115.353 86.3372 115.256 86.587 115.082 86.7796C114.907 86.9722 114.667 87.0941 114.407 87.1218Z" fill="#C4CDDB"/>
<path fill-rule="evenodd" clip-rule="evenodd" d="M115.43 88.4246H113.361C113.222 88.4246 113.089 88.3699 112.991 88.2726C112.893 88.1754 112.837 88.0434 112.837 87.9059V84.287C112.837 84.2189 112.851 84.1515 112.877 84.0885C112.904 84.0256 112.942 83.9684 112.991 83.9202C113.039 83.8721 113.097 83.8339 113.16 83.8078C113.224 83.7817 113.292 83.7683 113.361 83.7683H115.43C115.498 83.7683 115.566 83.7817 115.63 83.8078C115.693 83.8339 115.751 83.8721 115.8 83.9202C115.848 83.9684 115.887 84.0256 115.913 84.0885C115.939 84.1515 115.953 84.2189 115.953 84.287V87.9059C115.953 88.0434 115.898 88.1754 115.8 88.2726C115.701 88.3699 115.568 88.4246 115.43 88.4246Z" fill="#D9E1EC"/>
<path fill-rule="evenodd" clip-rule="evenodd" d="M119.433 88.9553V84.7936C119.418 84.6488 119.433 84.5023 119.478 84.3637C119.523 84.2251 119.597 84.0974 119.695 83.989C119.793 83.8806 119.913 83.7939 120.047 83.7345C120.182 83.6752 120.327 83.6445 120.474 83.6445C120.621 83.6445 120.766 83.6752 120.9 83.7345C121.034 83.7939 121.155 83.8806 121.253 83.989C121.351 84.0974 121.425 84.2251 121.47 84.3637C121.515 84.5023 121.53 84.6488 121.514 84.7936V88.9553C121.53 89.1001 121.515 89.2466 121.47 89.3853C121.425 89.5239 121.351 89.6516 121.253 89.76C121.155 89.8684 121.034 89.9551 120.9 90.0144C120.766 90.0738 120.621 90.1044 120.474 90.1044C120.327 90.1044 120.182 90.0738 120.047 90.0144C119.913 89.9551 119.793 89.8684 119.695 89.76C119.597 89.6516 119.523 89.5239 119.478 89.3853C119.433 89.2466 119.418 89.1001 119.433 88.9553Z" fill="#C4CDDB"/>
<path d="M121.77 90.5114C122.029 90.4837 122.269 90.3618 122.444 90.1692C122.618 89.9766 122.715 89.7268 122.715 89.4679C122.715 89.209 122.618 88.9593 122.444 88.7667C122.269 88.5741 122.029 88.4522 121.77 88.4245H119.19C119.042 88.4087 118.892 88.424 118.751 88.4692C118.61 88.5145 118.479 88.5887 118.369 88.6871C118.258 88.7855 118.17 88.9059 118.109 89.0405C118.049 89.175 118.018 89.3206 118.018 89.4679C118.018 89.6152 118.049 89.7609 118.109 89.8954C118.17 90.0299 118.258 90.1503 118.369 90.2487C118.479 90.3472 118.61 90.4214 118.751 90.4667C118.892 90.5119 119.042 90.5271 119.19 90.5114H121.77Z" fill="#D9E1EC"/>
<path fill-rule="evenodd" clip-rule="evenodd" d="M62.7355 88.7383C62.6945 89.6109 62.3066 90.4318 61.6567 91.0218C61.0068 91.6118 60.1477 91.9227 59.2672 91.8867L54.3994 91.6575C53.9624 91.6377 53.5335 91.5328 53.1373 91.3487C52.7411 91.1646 52.3854 90.9049 52.0905 90.5846C51.7956 90.2642 51.5672 89.8894 51.4183 89.4815C51.2695 89.0737 51.2032 88.6408 51.2232 88.2075C51.2432 87.7743 51.3491 87.3491 51.5348 86.9564C51.7205 86.5637 51.9824 86.2112 52.3056 85.9188C52.6288 85.6264 53.0069 85.4 53.4184 85.2525C53.8299 85.105 54.2666 85.0393 54.7037 85.0591L59.5715 85.2762C60.009 85.2963 60.4382 85.402 60.8344 85.5871C61.2306 85.7722 61.5859 86.0331 61.88 86.3549C62.174 86.6767 62.401 87.0529 62.5478 87.4619C62.6947 87.8709 62.7585 88.3047 62.7355 88.7383Z" fill="#CFD8E8"/>
<path fill-rule="evenodd" clip-rule="evenodd" d="M52.7806 93.3583L24.5474 94.3837C24.2775 94.3958 24.0089 94.3403 23.7664 94.2222C23.5239 94.1041 23.3154 93.9273 23.1601 93.7081C22.4786 92.7431 21.4807 90.6804 21.6511 86.8926C21.8215 83.1049 22.9897 81.1507 23.7686 80.246C23.9424 80.0429 24.1652 79.8866 24.4162 79.7917C24.6673 79.6968 24.9385 79.6663 25.2046 79.7031L53.1944 83.2496C53.6051 83.3036 53.9804 83.5082 54.2463 83.8231C54.5122 84.138 54.6492 84.5403 54.6304 84.9505L54.3262 91.7902C54.3117 92.1953 54.1453 92.5806 53.8595 92.8706C53.5737 93.1606 53.189 93.3345 52.7806 93.3583Z" fill="#EAEEF6"/>
<path fill-rule="evenodd" clip-rule="evenodd" d="M45.5034 93.1411C43.8119 93.1411 42.814 93.4788 41.2928 92.4776C39.1266 91.0422 37.5689 89.3775 34.7456 89.4137C31.18 89.4137 28.0646 91.7056 24.4989 90.1254C23.4523 89.667 21.7973 90.3546 22.065 91.4523C22.2824 92.2575 22.6363 93.0203 23.1116 93.708C23.2669 93.9272 23.4754 94.104 23.7179 94.2221C23.9604 94.3401 24.229 94.3957 24.4989 94.3836L45.4183 93.6236C45.9537 93.6115 45.9902 93.117 45.5034 93.1411Z" fill="#D9E1EC"/>
<path fill-rule="evenodd" clip-rule="evenodd" d="M72.9334 94.1423L60.8734 93.5995C60.7647 93.5948 60.658 93.569 60.5594 93.5234C60.4607 93.4778 60.3722 93.4134 60.2987 93.3338C60.2252 93.2543 60.1683 93.1612 60.1312 93.0598C60.0941 92.9584 60.0775 92.8508 60.0824 92.743L60.4475 84.5161C60.4522 84.4084 60.4782 84.3026 60.5242 84.2048C60.5702 84.1071 60.6352 84.0193 60.7154 83.9465C60.7957 83.8736 60.8896 83.8172 60.9919 83.7804C61.0942 83.7436 61.2028 83.7272 61.3115 83.732L73.3715 84.2749C73.6599 84.2905 73.9304 84.4184 74.1241 84.6307C74.3179 84.8431 74.4191 85.1228 74.4059 85.4088L74.0651 93.1049C74.0604 93.247 74.0273 93.3867 73.9677 93.516C73.9082 93.6453 73.8232 93.7615 73.718 93.858C73.6127 93.9546 73.4891 94.0294 73.3544 94.0782C73.2197 94.127 73.0766 94.1488 72.9334 94.1423Z" fill="#D9E1EC"/>
<path fill-rule="evenodd" clip-rule="evenodd" d="M49.4707 85.9395C49.4585 86.1413 49.3864 86.335 49.2635 86.4962C49.1405 86.6575 48.9722 86.7792 48.7797 86.8459C48.5872 86.9127 48.3791 86.9215 48.1815 86.8714C47.9839 86.8212 47.8057 86.7143 47.6693 86.564C47.5329 86.4137 47.4443 86.2269 47.4147 86.0268C47.3851 85.8268 47.4159 85.6226 47.503 85.4398C47.5902 85.2571 47.7299 85.1039 47.9046 84.9997C48.0794 84.8954 48.2813 84.8446 48.485 84.8538C48.7605 84.8694 49.0187 84.9922 49.2033 85.1955C49.3879 85.3989 49.484 85.6662 49.4707 85.9395ZM43.5807 85.1916C43.5678 85.4635 43.4464 85.7192 43.2433 85.9025C43.0402 86.0857 42.772 86.1814 42.4976 86.1686C42.2233 86.1558 41.9653 86.0355 41.7804 85.8342C41.5956 85.6329 41.499 85.367 41.5119 85.0951C41.515 84.9599 41.5453 84.8267 41.6012 84.7033C41.657 84.5799 41.7372 84.4689 41.837 84.3767C41.9368 84.2845 42.0542 84.2131 42.1823 84.1666C42.3104 84.12 42.4465 84.0994 42.5828 84.1059C42.7203 84.1121 42.8552 84.1451 42.9798 84.203C43.1044 84.261 43.2162 84.3427 43.3089 84.4436C43.4016 84.5444 43.4733 84.6624 43.52 84.7907C43.5666 84.9191 43.5872 85.0553 43.5807 85.1916Z" fill="#B6C1CC"/>
</g>
<defs>
<clipPath id="clip0">
<rect width="124.348" height="99" fill="white" transform="translate(8.8125 -3)"/>
</clipPath>
</defs>
</svg>
